<svg width="872" height="271" viewBox="0 0 872 271" fill="none" xmlns="http://www.w3.org/2000/svg">
<path d="M542.208 109.184C542.208 112.256 541.44 115.072 539.904 117.632C538.453 120.192 536.448 122.24 533.888 123.776C531.328 125.312 528.469 126.08 525.312 126.08H501.76C500.736 126.08 500.224 126.635 500.224 127.744V154.112C500.224 155.733 499.627 157.141 498.432 158.336C497.323 159.445 495.957 160 494.336 160H490.88C489.259 160 487.851 159.445 486.656 158.336C485.547 157.141 484.992 155.733 484.992 154.112V79.36C484.992 77.6533 485.547 76.2453 486.656 75.136C487.851 74.0267 489.259 73.472 490.88 73.472H525.312C528.469 73.472 531.328 74.24 533.888 75.776C536.448 77.312 538.453 79.36 539.904 81.92C541.44 84.48 542.208 87.3387 542.208 90.496V109.184ZM527.104 109.184V90.496C527.104 89.3013 526.507 88.704 525.312 88.704H501.76C500.736 88.704 500.224 89.2587 500.224 90.368V109.184C500.224 110.293 500.736 110.848 501.76 110.848H525.312C526.507 110.848 527.104 110.293 527.104 109.184ZM598.831 145.664C598.831 149.675 597.423 153.088 594.607 155.904C591.876 158.635 588.548 160 584.623 160H566.831C562.906 160 559.535 158.635 556.719 155.904C553.903 153.088 552.495 149.675 552.495 145.664V99.712C552.495 98.0053 553.05 96.5973 554.159 95.488C555.354 94.2933 556.762 93.696 558.383 93.696H561.967C563.588 93.696 564.954 94.2933 566.063 95.488C567.172 96.5973 567.727 98.0053 567.727 99.712V143.232C567.727 143.659 567.898 144.043 568.239 144.384C568.666 144.725 569.092 144.896 569.519 144.896H581.935C582.362 144.896 582.746 144.725 583.087 144.384C583.514 144.043 583.727 143.659 583.727 143.232V99.712C583.727 98.0053 584.282 96.5973 585.391 95.488C586.5 94.2933 587.866 93.696 589.487 93.696H593.071C594.692 93.696 596.058 94.2933 597.167 95.488C598.276 96.5973 598.831 98.0053 598.831 99.712V145.664ZM632.541 154.112C632.541 155.733 631.944 157.141 630.749 158.336C629.64 159.445 628.274 160 626.653 160H623.453C619.528 160 616.157 158.635 613.341 155.904C610.525 153.088 609.117 149.675 609.117 145.664V79.36C609.117 77.6533 609.672 76.2453 610.781 75.136C611.976 74.0267 613.384 73.472 615.005 73.472H618.589C620.21 73.472 621.576 74.0267 622.685 75.136C623.88 76.2453 624.477 77.6533 624.477 79.36V143.232C624.477 144.341 624.989 144.896 626.013 144.896H626.653C628.274 144.896 629.64 145.451 630.749 146.56C631.944 147.669 632.541 149.077 632.541 150.784V154.112ZM688.956 145.664C688.956 149.675 687.548 153.088 684.732 155.904C682.001 158.635 678.673 160 674.748 160H656.956C653.031 160 649.66 158.635 646.844 155.904C644.028 153.088 642.62 149.675 642.62 145.664V140.416C642.62 138.795 643.175 137.429 644.284 136.32C645.479 135.125 646.887 134.528 648.508 134.528H652.092C653.713 134.528 655.079 135.125 656.188 136.32C657.297 137.429 657.852 138.795 657.852 140.416V143.232C657.852 144.341 658.449 144.896 659.644 144.896H672.06C672.487 144.896 672.871 144.725 673.212 144.384C673.639 144.043 673.852 143.659 673.852 143.232V138.496C673.852 137.813 673.511 137.344 672.828 137.088L654.268 131.2C650.855 130.005 648.039 127.957 645.82 125.056C643.687 122.155 642.62 118.869 642.62 115.2V108.032C642.62 105.387 643.26 102.997 644.54 100.864C645.905 98.7307 647.655 97.024 649.788 95.744C651.921 94.3787 654.311 93.696 656.956 93.696H674.748C677.393 93.696 679.783 94.3787 681.916 95.744C684.049 97.024 685.756 98.7307 687.036 100.864C688.316 102.997 688.956 105.387 688.956 108.032V113.152C688.956 114.773 688.401 116.181 687.292 117.376C686.183 118.485 684.817 119.04 683.196 119.04H679.612C677.991 119.04 676.625 118.485 675.516 117.376C674.407 116.181 673.852 114.773 673.852 113.152V110.72C673.852 110.208 673.639 109.781 673.212 109.44C672.871 109.099 672.487 108.928 672.06 108.928H659.644C658.449 108.928 657.852 109.525 657.852 110.72V115.2C657.852 116.053 658.193 116.565 658.876 116.736L677.436 122.624C680.935 123.733 683.708 125.739 685.756 128.64C687.889 131.541 688.956 134.827 688.956 138.496V145.664ZM745.706 121.984C745.706 124.544 745.066 126.933 743.786 129.152C742.506 131.285 740.799 133.035 738.666 134.4C736.533 135.68 734.143 136.32 731.498 136.32H716.394C715.967 136.32 715.541 136.491 715.114 136.832C714.773 137.088 714.602 137.429 714.602 137.856V143.232C714.602 143.659 714.773 144.043 715.114 144.384C715.541 144.725 715.967 144.896 716.394 144.896H731.498C733.119 144.896 734.485 145.451 735.594 146.56C736.789 147.669 737.386 149.077 737.386 150.784V154.112C737.386 155.733 736.789 157.141 735.594 158.336C734.485 159.445 733.119 160 731.498 160H713.706C709.781 160 706.41 158.635 703.594 155.904C700.778 153.088 699.37 149.675 699.37 145.664V108.032C699.37 105.387 700.01 102.997 701.29 100.864C702.655 98.7307 704.405 97.024 706.538 95.744C708.671 94.3787 711.061 93.696 713.706 93.696H731.498C734.143 93.696 736.533 94.3787 738.666 95.744C740.799 97.024 742.506 98.7307 743.786 100.864C745.066 102.997 745.706 105.387 745.706 108.032V121.984ZM730.602 119.424V110.72C730.602 110.208 730.389 109.781 729.962 109.44C729.621 109.099 729.237 108.928 728.81 108.928H716.394C715.967 108.928 715.541 109.099 715.114 109.44C714.773 109.781 714.602 110.208 714.602 110.72V119.424C714.602 119.765 714.773 120.107 715.114 120.448C715.541 120.789 715.967 120.96 716.394 120.96H728.81C729.237 120.96 729.621 120.789 729.962 120.448C730.389 120.107 730.602 119.765 730.602 119.424Z" fill="white"/>
<path fill-rule="evenodd" clip-rule="evenodd" d="M428.813 80.6864C426.923 81.7264 426.566 83.0436 423.967 98.5541C422.67 106.292 419.812 123.016 417.614 135.718C415.417 148.42 412.023 168.129 410.076 179.517C408.127 190.905 404.958 209.421 403.032 220.663C401.108 231.905 399.124 241.939 398.624 242.961C397.539 245.183 395.756 240.285 379.211 189.605C365.825 148.601 366.038 149.184 364.071 148.439C361.679 147.532 358.5 148.045 356.868 149.599C356.065 150.364 352.23 156.453 348.347 163.13C344.464 169.807 340.931 175.437 340.496 175.642C340.062 175.846 264.173 175.755 171.855 175.441C4.5407 174.87 3.99647 174.872 1.67193 175.934C-0.181649 176.78 -0.408405 177.215 0.570715 178.051C1.5917 178.921 3.46621 179.16 11.4445 179.435C16.746 179.617 94.6395 179.927 184.54 180.124L347.993 180.481L349.345 178.937C350.088 178.088 352.298 174.669 354.258 171.338C358.503 164.117 359.574 163.026 360.556 164.925C360.93 165.651 367.786 186.194 375.79 210.576C394.075 266.271 394.556 267.655 396.085 268.96C397.84 270.456 402.81 270.384 404.233 268.843C404.839 268.185 406.673 259.645 408.309 249.863C413.243 220.348 419.166 185.607 423.378 161.467C425.569 148.911 428.243 133.382 429.318 126.958C430.395 120.534 431.735 115.051 432.295 114.773C432.921 114.464 433.315 114.556 433.315 115.011C433.315 115.419 436.697 132.37 440.83 152.679C444.962 172.988 448.701 191.473 449.137 193.758C449.93 197.906 451.503 199.426 454.999 199.426C457.911 199.426 461.234 197.27 471.053 189.007L480.437 181.11L662.992 180.82C763.396 180.66 845.659 180.481 845.796 180.422C845.933 180.362 846.628 179.816 847.342 179.208C848.376 178.326 848.231 177.896 846.622 177.084C844.649 176.089 840.479 176.067 660.763 176.075C549.847 176.08 476.245 176.278 475.217 176.575C474.279 176.846 470.568 179.53 466.97 182.54C463.371 185.55 459.953 188.012 459.372 188.012C457.99 188.012 459.082 192.93 447.307 133.683C440.845 101.174 436.414 81.1939 435.562 80.7251C433.834 79.7743 430.506 79.7557 428.813 80.6864Z" fill="white"/>
<path d="M184.08 131.104C184.08 134.176 183.312 136.992 181.776 139.552C180.24 142.112 178.192 144.16 175.632 145.696C173.072 147.232 170.256 148 167.184 148H144.144C141.072 148 138.213 147.232 135.568 145.696C133.008 144.16 130.96 142.112 129.424 139.552C127.888 136.992 127.12 134.176 127.12 131.104V78.496C127.12 75.3387 127.888 72.48 129.424 69.92C130.96 67.36 133.008 65.312 135.568 63.776C138.213 62.24 141.072 61.472 144.144 61.472H167.184C170.256 61.472 173.072 62.24 175.632 63.776C178.192 65.312 180.24 67.36 181.776 69.92C183.312 72.48 184.08 75.3387 184.08 78.496V81.952C184.08 83.5733 183.525 84.9387 182.416 86.048C181.307 87.1573 179.899 87.712 178.192 87.712H174.736C173.115 87.712 171.707 87.1573 170.512 86.048C169.403 84.9387 168.848 83.5733 168.848 81.952V78.496C168.848 77.3013 168.293 76.704 167.184 76.704H144.144C143.035 76.704 142.48 77.3013 142.48 78.496V131.104C142.48 131.531 142.651 131.957 142.992 132.384C143.333 132.725 143.717 132.896 144.144 132.896H167.184C167.611 132.896 167.995 132.725 168.336 132.384C168.677 131.957 168.848 131.531 168.848 131.104V127.264C168.848 125.643 169.403 124.277 170.512 123.168C171.707 121.973 173.115 121.376 174.736 121.376H178.192C179.899 121.376 181.307 121.973 182.416 123.168C183.525 124.277 184.08 125.643 184.08 127.264V131.104ZM213.823 69.664C213.823 72.3093 212.842 74.6133 210.879 76.576C209.002 78.4533 206.783 79.392 204.223 79.392C201.578 79.392 199.274 78.4533 197.311 76.576C195.434 74.6133 194.495 72.3093 194.495 69.664C194.495 67.104 195.434 64.8853 197.311 63.008C199.274 61.0453 201.578 60.064 204.223 60.064C206.783 60.064 209.002 61.0453 210.879 63.008C212.842 64.8853 213.823 67.104 213.823 69.664ZM211.775 142.112C211.775 143.733 211.178 145.141 209.983 146.336C208.874 147.445 207.508 148 205.887 148H202.431C200.81 148 199.402 147.445 198.207 146.336C197.098 145.141 196.543 143.733 196.543 142.112V88.992C196.543 87.3707 197.098 86.0053 198.207 84.896C199.402 83.7013 200.81 83.104 202.431 83.104H205.887C207.508 83.104 208.874 83.7013 209.983 84.896C211.178 86.0053 211.775 87.3707 211.775 88.992V142.112ZM262.136 142.112C262.136 143.733 261.581 145.141 260.472 146.336C259.363 147.445 257.997 148 256.376 148H238.456C234.531 148 231.16 146.635 228.344 143.904C225.613 141.088 224.248 137.675 224.248 133.664V67.36C224.248 65.6533 224.803 64.2453 225.912 63.136C227.021 62.0267 228.387 61.472 230.008 61.472H233.592C235.213 61.472 236.579 62.0267 237.688 63.136C238.883 64.2453 239.48 65.6533 239.48 67.36V80.16C239.48 81.184 240.035 81.696 241.144 81.696H256.376C257.997 81.696 259.363 82.2933 260.472 83.488C261.581 84.5973 262.136 86.0053 262.136 87.712V91.168C262.136 92.6187 261.581 93.984 260.472 95.264C259.192 96.3733 257.827 96.928 256.376 96.928H241.144C240.035 96.928 239.48 97.5253 239.48 98.72V131.232C239.48 132.341 240.035 132.896 241.144 132.896H256.376C257.997 132.896 259.363 133.451 260.472 134.56C261.581 135.669 262.136 137.077 262.136 138.784V142.112ZM315.375 89.12L297.839 156.448C296.9 159.947 294.98 162.805 292.079 165.024C289.178 167.328 285.85 168.48 282.095 168.48H278.511C276.89 168.48 275.482 167.883 274.287 166.688C273.178 165.579 272.623 164.213 272.623 162.592V159.008C272.623 157.387 273.178 156.021 274.287 154.912C275.482 153.803 276.89 153.248 278.511 153.248H282.095C282.607 153.248 282.948 152.992 283.119 152.48L285.935 141.472C286.191 140.789 286.191 140.064 285.935 139.296L272.879 89.12C272.196 87.1573 272.538 85.4933 273.903 84.128C275.012 82.5067 276.506 81.696 278.383 81.696H282.095C283.46 81.696 284.655 82.1227 285.679 82.976C286.703 83.744 287.386 84.8107 287.727 86.176L293.487 108.064C293.572 108.405 293.786 108.576 294.127 108.576C294.468 108.576 294.682 108.405 294.767 108.064L300.527 86.176C300.954 84.8107 301.636 83.744 302.575 82.976C303.599 82.1227 304.751 81.696 306.031 81.696H309.743C311.706 81.696 313.242 82.5067 314.351 84.128C315.631 85.4933 315.972 87.1573 315.375 89.12Z" fill="white"/>
</svg>
