<svg width="32" height="32" viewBox="0 0 32 32" fill="none" xmlns="http://www.w3.org/2000/svg">
<rect width="32" height="32" rx="8" fill="#8A2BE2"/>
<path fill-rule="evenodd" clip-rule="evenodd" d="M15.4262 5.0244C15.4105 5.22126 15.4084 5.44551 15.4212 5.52298C15.434 5.60046 15.2339 5.72168 14.9764 5.79221C14.3975 5.95104 14.358 6.26687 14.922 6.22824C15.5609 6.18428 15.6037 7.03815 14.9698 7.18145C14.6898 7.24482 14.5278 7.39078 14.6101 7.50587C14.6924 7.62095 14.9161 7.66327 15.1069 7.5999C15.5439 7.45497 15.5489 7.80473 15.1265 9.01735C14.8418 9.83565 14.8454 10.0149 15.154 10.3958C15.6144 10.9641 15.3904 11.1384 13.7155 11.5156C11.7792 11.9514 11.6704 11.9312 11.6704 11.136C11.6704 9.72404 11.3652 8.00322 11.048 7.62852C10.7624 7.29061 10.6784 7.27896 10.3987 7.53776C9.86992 8.02714 9.57314 9.07398 9.71124 9.96341C9.84887 10.8512 10.2379 11.1119 10.2719 10.3393C10.289 9.95115 10.3244 9.97241 10.4985 10.4757C10.612 10.8036 10.6415 11.4704 10.5642 11.9577C10.4245 12.84 10.4268 12.8435 11.1653 12.8435C11.5889 12.8435 12.1075 13.0168 12.3744 13.2476C12.8403 13.6503 12.8429 13.6503 13.0921 13.2476C13.4565 12.6591 14.2362 12.7364 14.5238 13.3899C14.698 13.7861 14.6673 14.3053 14.4119 15.2808C14.1655 16.2228 14.0662 17.7269 14.0808 20.3049C14.1014 23.9536 13.9139 25.0885 12.9708 27.0158C12.8046 27.3555 12.8928 27.3801 13.9437 27.2856C14.5793 27.2286 16.0951 27.1752 17.312 27.1673C19.3235 27.1542 19.5091 27.1205 19.3538 26.7952C18.4407 24.8851 18.2133 23.4991 18.1875 19.6887C18.1631 16.1059 18.1203 15.7342 17.6405 14.9384C17.0271 13.921 17.1281 12.8435 17.8366 12.8435C18.074 12.8435 18.3712 13.0025 18.497 13.1969C18.7141 13.532 18.7496 13.532 19.1778 13.1969C19.4264 13.0025 19.8341 12.8421 20.084 12.8404C20.8769 12.8349 21.2002 12.5232 21.0642 11.8952C20.6546 10.0041 20.6215 9.68009 20.8698 9.98161C21.0623 10.2157 21.1231 10.2234 21.1259 10.0143C21.1278 9.86366 21.369 9.56479 21.6615 9.34995L22.1936 8.9595L21.6615 8.56906C21.369 8.35421 21.1295 7.94578 21.1295 7.66123C21.1295 7.37667 21.0351 7.09334 20.9197 7.03181C20.5967 6.85928 20.1571 7.43534 20.3243 7.81188C20.4061 7.99627 20.3342 8.29166 20.1644 8.46828C19.9776 8.66289 19.8509 9.36691 19.8426 10.2543L19.8289 11.7192L19.0012 11.6732C16.6546 11.5428 16.3136 11.3512 16.5362 10.2882C16.6083 9.94277 16.5033 9.343 16.2957 8.91494C15.8168 7.92759 15.8296 7.52999 16.3408 7.52202C16.735 7.51588 16.735 7.50259 16.3408 7.244C15.7541 6.85908 15.8178 6.12602 16.4591 5.88215C16.9625 5.69102 16.9569 5.68407 16.3538 5.75602C15.7657 5.82634 15.727 5.78709 15.8513 5.24947C15.9355 4.88499 15.8866 4.66666 15.7201 4.66666C15.5737 4.66666 15.4415 4.82754 15.4262 5.0244Z" fill="white"/>
</svg>
